<?xml version="1.0" encoding="UTF-8" standalone="no"?>
<!DOCTYPE svg PUBLIC "-//W3C//DTD SVG 1.1//EN"
 "http://www.w3.org/Graphics/SVG/1.1/DTD/svg11.dtd">
<!-- Generated by graphviz version 2.47.0 (20210316.0004)
 -->
<!-- Title: dependencies Pages: 1 -->
<svg width="1322pt" height="211pt"
 viewBox="0.00 0.00 1322.00 211.00" xmlns="http://www.w3.org/2000/svg" xmlns:xlink="http://www.w3.org/1999/xlink">
<g id="graph0" class="graph" transform="scale(1 1) rotate(0) translate(4 207)">
<title>dependencies</title>
<polygon fill="white" stroke="transparent" points="-4,4 -4,-207 1318,-207 1318,4 -4,4"/>
<text text-anchor="start" x="636.01" y="-42.4" font-family="Times-12" font-weight="bold" font-size="14.00">Legend</text>
<polygon fill="#ffffb3" stroke="transparent" points="423,-10 423,-30 443,-30 443,-10 423,-10"/>
<text text-anchor="start" x="446.63" y="-15.4" font-family="Times-12" font-size="14.00"> &#160;Declarations</text>
<polygon fill="#8dd3c7" stroke="transparent" points="536,-10 536,-30 556,-30 556,-10 536,-10"/>
<text text-anchor="start" x="559.73" y="-15.4" font-family="Times-12" font-size="14.00"> &#160;Module</text>
<polygon fill="#80b1d3" stroke="transparent" points="622,-10 622,-30 642,-30 642,-10 622,-10"/>
<text text-anchor="start" x="645.78" y="-15.4" font-family="Times-12" font-size="14.00"> &#160;Bootstrap</text>
<polygon fill="#fdb462" stroke="transparent" points="719,-10 719,-30 739,-30 739,-10 719,-10"/>
<text text-anchor="start" x="742.67" y="-15.4" font-family="Times-12" font-size="14.00"> &#160;Providers</text>
<polygon fill="#fb8072" stroke="transparent" points="815,-10 815,-30 835,-30 835,-10 815,-10"/>
<text text-anchor="start" x="838.73" y="-15.4" font-family="Times-12" font-size="14.00"> &#160;Exports</text>
<g id="clust1" class="cluster">
<title>cluster_AuthModule</title>
<polygon fill="none" stroke="black" stroke-dasharray="1,5" points="8,-70 8,-195 1306,-195 1306,-70 8,-70"/>
</g>
<g id="clust13" class="cluster">
<title>cluster_AuthModule_providers</title>
<polygon fill="none" stroke="black" points="1164,-78 1164,-130 1298,-130 1298,-78 1164,-78"/>
</g>
<g id="clust2" class="cluster">
<title>cluster_AuthModule_declarations</title>
<polygon fill="none" stroke="black" points="172,-78 172,-130 1156,-130 1156,-78 172,-78"/>
</g>
<g id="clust10" class="cluster">
<title>cluster_AuthModule_imports</title>
<polygon fill="none" stroke="black" points="16,-78 16,-130 164,-130 164,-78 16,-78"/>
</g>
<!-- DetailsComponent -->
<g id="node1" class="node">
<title>DetailsComponent</title>
<polygon fill="#ffffb3" stroke="black" points="1148.48,-122 1027.52,-122 1027.52,-86 1148.48,-86 1148.48,-122"/>
<text text-anchor="middle" x="1088" y="-99.8" font-family="Times,serif" font-size="14.00">DetailsComponent</text>
</g>
<!-- AuthModule -->
<g id="node8" class="node">
<title>AuthModule</title>
<polygon fill="#8dd3c7" stroke="black" points="711.55,-187 708.55,-191 687.55,-191 684.55,-187 624.45,-187 624.45,-151 711.55,-151 711.55,-187"/>
<text text-anchor="middle" x="668" y="-164.8" font-family="Times,serif" font-size="14.00">AuthModule</text>
</g>
<!-- DetailsComponent&#45;&gt;AuthModule -->
<g id="edge1" class="edge">
<title>DetailsComponent&#45;&gt;AuthModule</title>
<path fill="none" stroke="black" d="M1088,-122.13C1088,-142.57 1088,-173 1088,-173 1088,-173 721.76,-173 721.76,-173"/>
<polygon fill="black" stroke="black" points="721.76,-169.5 711.76,-173 721.76,-176.5 721.76,-169.5"/>
</g>
<!-- FavoritesComponent -->
<g id="node2" class="node">
<title>FavoritesComponent</title>
<polygon fill="#ffffb3" stroke="black" points="1009.93,-122 876.07,-122 876.07,-86 1009.93,-86 1009.93,-122"/>
<text text-anchor="middle" x="943" y="-99.8" font-family="Times,serif" font-size="14.00">FavoritesComponent</text>
</g>
<!-- FavoritesComponent&#45;&gt;AuthModule -->
<g id="edge2" class="edge">
<title>FavoritesComponent&#45;&gt;AuthModule</title>
<path fill="none" stroke="black" d="M943,-122.27C943,-140.56 943,-166 943,-166 943,-166 721.57,-166 721.57,-166"/>
<polygon fill="black" stroke="black" points="721.57,-162.5 711.57,-166 721.57,-169.5 721.57,-162.5"/>
</g>
<!-- HomeComponent -->
<g id="node3" class="node">
<title>HomeComponent</title>
<polygon fill="#ffffb3" stroke="black" points="858.55,-122 743.45,-122 743.45,-86 858.55,-86 858.55,-122"/>
<text text-anchor="middle" x="801" y="-99.8" font-family="Times,serif" font-size="14.00">HomeComponent</text>
</g>
<!-- HomeComponent&#45;&gt;AuthModule -->
<g id="edge3" class="edge">
<title>HomeComponent&#45;&gt;AuthModule</title>
<path fill="none" stroke="black" d="M801,-122.01C801,-138.05 801,-159 801,-159 801,-159 721.55,-159 721.55,-159"/>
<polygon fill="black" stroke="black" points="721.55,-155.5 711.55,-159 721.55,-162.5 721.55,-155.5"/>
</g>
<!-- LoginComponent -->
<g id="node4" class="node">
<title>LoginComponent</title>
<polygon fill="#ffffb3" stroke="black" points="725.28,-122 610.72,-122 610.72,-86 725.28,-86 725.28,-122"/>
<text text-anchor="middle" x="668" y="-99.8" font-family="Times,serif" font-size="14.00">LoginComponent</text>
</g>
<!-- LoginComponent&#45;&gt;AuthModule -->
<g id="edge4" class="edge">
<title>LoginComponent&#45;&gt;AuthModule</title>
<path fill="none" stroke="black" d="M668,-122.11C668,-122.11 668,-140.99 668,-140.99"/>
<polygon fill="black" stroke="black" points="664.5,-140.99 668,-150.99 671.5,-140.99 664.5,-140.99"/>
</g>
<!-- QueryComponent -->
<g id="node5" class="node">
<title>QueryComponent</title>
<polygon fill="#ffffb3" stroke="black" points="592.31,-122 475.69,-122 475.69,-86 592.31,-86 592.31,-122"/>
<text text-anchor="middle" x="534" y="-99.8" font-family="Times,serif" font-size="14.00">QueryComponent</text>
</g>
<!-- QueryComponent&#45;&gt;AuthModule -->
<g id="edge5" class="edge">
<title>QueryComponent&#45;&gt;AuthModule</title>
<path fill="none" stroke="black" d="M534,-122.01C534,-138.05 534,-159 534,-159 534,-159 614.12,-159 614.12,-159"/>
<polygon fill="black" stroke="black" points="614.12,-162.5 624.12,-159 614.12,-155.5 614.12,-162.5"/>
</g>
<!-- RegisterComponent -->
<g id="node6" class="node">
<title>RegisterComponent</title>
<polygon fill="#ffffb3" stroke="black" points="457.98,-122 330.02,-122 330.02,-86 457.98,-86 457.98,-122"/>
<text text-anchor="middle" x="394" y="-99.8" font-family="Times,serif" font-size="14.00">RegisterComponent</text>
</g>
<!-- RegisterComponent&#45;&gt;AuthModule -->
<g id="edge6" class="edge">
<title>RegisterComponent&#45;&gt;AuthModule</title>
<path fill="none" stroke="black" d="M394,-122.27C394,-140.56 394,-166 394,-166 394,-166 614.28,-166 614.28,-166"/>
<polygon fill="black" stroke="black" points="614.28,-169.5 624.28,-166 614.28,-162.5 614.28,-169.5"/>
</g>
<!-- UserInfoComponent -->
<g id="node7" class="node">
<title>UserInfoComponent</title>
<polygon fill="#ffffb3" stroke="black" points="311.58,-122 180.42,-122 180.42,-86 311.58,-86 311.58,-122"/>
<text text-anchor="middle" x="246" y="-99.8" font-family="Times,serif" font-size="14.00">UserInfoComponent</text>
</g>
<!-- UserInfoComponent&#45;&gt;AuthModule -->
<g id="edge7" class="edge">
<title>UserInfoComponent&#45;&gt;AuthModule</title>
<path fill="none" stroke="black" d="M246,-122.13C246,-142.57 246,-173 246,-173 246,-173 614.43,-173 614.43,-173"/>
<polygon fill="black" stroke="black" points="614.43,-176.5 624.43,-173 614.43,-169.5 614.43,-176.5"/>
</g>
<!-- AuthRoutingModule -->
<g id="node9" class="node">
<title>AuthRoutingModule</title>
<polygon fill="#8dd3c7" stroke="black" points="156.17,-122 153.17,-126 132.17,-126 129.17,-122 23.83,-122 23.83,-86 156.17,-86 156.17,-122"/>
<text text-anchor="middle" x="90" y="-99.8" font-family="Times,serif" font-size="14.00">AuthRoutingModule</text>
</g>
<!-- AuthRoutingModule&#45;&gt;AuthModule -->
<g id="edge8" class="edge">
<title>AuthRoutingModule&#45;&gt;AuthModule</title>
<path fill="none" stroke="black" d="M90,-122.01C90,-144.49 90,-180 90,-180 90,-180 614.08,-180 614.08,-180"/>
<polygon fill="black" stroke="black" points="614.08,-183.5 624.08,-180 614.08,-176.5 614.08,-183.5"/>
</g>
<!-- AuthService -->
<g id="node10" class="node">
<title>AuthService</title>
<ellipse fill="#fdb462" stroke="black" cx="1231" cy="-104" rx="59.11" ry="18"/>
<text text-anchor="middle" x="1231" y="-99.8" font-family="Times,serif" font-size="14.00">AuthService</text>
</g>
<!-- AuthService&#45;&gt;AuthModule -->
<g id="edge9" class="edge">
<title>AuthService&#45;&gt;AuthModule</title>
<path fill="none" stroke="black" d="M1231,-122.01C1231,-144.49 1231,-180 1231,-180 1231,-180 721.71,-180 721.71,-180"/>
<polygon fill="black" stroke="black" points="721.71,-176.5 711.71,-180 721.71,-183.5 721.71,-176.5"/>
</g>
</g>
</svg>
