<?xml version="1.0" encoding="UTF-8" standalone="no"?>
<!DOCTYPE svg PUBLIC "-//W3C//DTD SVG 1.1//EN"
 "http://www.w3.org/Graphics/SVG/1.1/DTD/svg11.dtd">
<!-- Generated by graphviz version 2.47.0 (20210316.0004)
 -->
<!-- Title: dependencies Pages: 1 -->
<svg width="1322pt" height="211pt"
 viewBox="0.00 0.00 1322.00 211.00" xmlns="http://www.w3.org/2000/svg" xmlns:xlink="http://www.w3.org/1999/xlink">
<g id="graph0" class="graph" transform="scale(1 1) rotate(0) translate(4 207)">
<title>dependencies</title>
<polygon fill="white" stroke="transparent" points="-4,4 -4,-207 1318,-207 1318,4 -4,4"/>
<text text-anchor="start" x="636.01" y="-42.4" font-family="Times-12" font-weight="bold" font-size="14.00">Legend</text>
<polygon fill="#ffffb3" stroke="transparent" points="423,-10 423,-30 443,-30 443,-10 423,-10"/>
<text text-anchor="start" x="446.63" y="-15.4" font-family="Times-12" font-size="14.00"> &#160;Declarations</text>
<polygon fill="#8dd3c7" stroke="transparent" points="536,-10 536,-30 556,-30 556,-10 536,-10"/>
<text text-anchor="start" x="559.73" y="-15.4" font-family="Times-12" font-size="14.00"> &#160;Module</text>
<polygon fill="#80b1d3" stroke="transparent" points="622,-10 622,-30 642,-30 642,-10 622,-10"/>
<text text-anchor="start" x="645.78" y="-15.4" font-family="Times-12" font-size="14.00"> &#160;Bootstrap</text>
<polygon fill="#fdb462" stroke="transparent" points="719,-10 719,-30 739,-30 739,-10 719,-10"/>
<text text-anchor="start" x="742.67" y="-15.4" font-family="Times-12" font-size="14.00"> &#160;Providers</text>
<polygon fill="#fb8072" stroke="transparent" points="815,-10 815,-30 835,-30 835,-10 815,-10"/>
<text text-anchor="start" x="838.73" y="-15.4" font-family="Times-12" font-size="14.00"> &#160;Exports</text>
<g id="clust1" class="cluster">
<title>cluster_AuthModule</title>
<polygon fill="none" stroke="black" stroke-dasharray="1,5" points="8,-70 8,-195 1306,-195 1306,-70 8,-70"/>
</g>
<g id="clust2" class="cluster">
<title>cluster_AuthModule_declarations</title>
<polygon fill="none" stroke="black" points="314,-78 314,-130 1298,-130 1298,-78 314,-78"/>
</g>
<g id="clust13" class="cluster">
<title>cluster_AuthModule_providers</title>
<polygon fill="none" stroke="black" points="172,-78 172,-130 306,-130 306,-78 172,-78"/>
</g>
<g id="clust10" class="cluster">
<title>cluster_AuthModule_imports</title>
<polygon fill="none" stroke="black" points="16,-78 16,-130 164,-130 164,-78 16,-78"/>
</g>
<!-- DetailsComponent -->
<g id="node1" class="node">
<title>DetailsComponent</title>
<polygon fill="#ffffb3" stroke="black" points="1290.48,-122 1169.52,-122 1169.52,-86 1290.48,-86 1290.48,-122"/>
<text text-anchor="middle" x="1230" y="-99.8" font-family="Times,serif" font-size="14.00">DetailsComponent</text>
</g>
<!-- AuthModule -->
<g id="node8" class="node">
<title>AuthModule</title>
<polygon fill="#8dd3c7" stroke="black" points="719.55,-187 716.55,-191 695.55,-191 692.55,-187 632.45,-187 632.45,-151 719.55,-151 719.55,-187"/>
<text text-anchor="middle" x="676" y="-164.8" font-family="Times,serif" font-size="14.00">AuthModule</text>
</g>
<!-- DetailsComponent&#45;&gt;AuthModule -->
<g id="edge1" class="edge">
<title>DetailsComponent&#45;&gt;AuthModule</title>
<path fill="none" stroke="black" d="M1230,-122.01C1230,-144.49 1230,-180 1230,-180 1230,-180 729.93,-180 729.93,-180"/>
<polygon fill="black" stroke="black" points="729.93,-176.5 719.93,-180 729.93,-183.5 729.93,-176.5"/>
</g>
<!-- FavoritesComponent -->
<g id="node2" class="node">
<title>FavoritesComponent</title>
<polygon fill="#ffffb3" stroke="black" points="1151.93,-122 1018.07,-122 1018.07,-86 1151.93,-86 1151.93,-122"/>
<text text-anchor="middle" x="1085" y="-99.8" font-family="Times,serif" font-size="14.00">FavoritesComponent</text>
</g>
<!-- FavoritesComponent&#45;&gt;AuthModule -->
<g id="edge2" class="edge">
<title>FavoritesComponent&#45;&gt;AuthModule</title>
<path fill="none" stroke="black" d="M1085,-122.13C1085,-142.57 1085,-173 1085,-173 1085,-173 729.77,-173 729.77,-173"/>
<polygon fill="black" stroke="black" points="729.77,-169.5 719.77,-173 729.77,-176.5 729.77,-169.5"/>
</g>
<!-- HomeComponent -->
<g id="node3" class="node">
<title>HomeComponent</title>
<polygon fill="#ffffb3" stroke="black" points="1000.55,-122 885.45,-122 885.45,-86 1000.55,-86 1000.55,-122"/>
<text text-anchor="middle" x="943" y="-99.8" font-family="Times,serif" font-size="14.00">HomeComponent</text>
</g>
<!-- HomeComponent&#45;&gt;AuthModule -->
<g id="edge3" class="edge">
<title>HomeComponent&#45;&gt;AuthModule</title>
<path fill="none" stroke="black" d="M943,-122.27C943,-140.56 943,-166 943,-166 943,-166 729.79,-166 729.79,-166"/>
<polygon fill="black" stroke="black" points="729.79,-162.5 719.79,-166 729.79,-169.5 729.79,-162.5"/>
</g>
<!-- LoginComponent -->
<g id="node4" class="node">
<title>LoginComponent</title>
<polygon fill="#ffffb3" stroke="black" points="867.28,-122 752.72,-122 752.72,-86 867.28,-86 867.28,-122"/>
<text text-anchor="middle" x="810" y="-99.8" font-family="Times,serif" font-size="14.00">LoginComponent</text>
</g>
<!-- LoginComponent&#45;&gt;AuthModule -->
<g id="edge4" class="edge">
<title>LoginComponent&#45;&gt;AuthModule</title>
<path fill="none" stroke="black" d="M810,-122.01C810,-138.05 810,-159 810,-159 810,-159 729.88,-159 729.88,-159"/>
<polygon fill="black" stroke="black" points="729.88,-155.5 719.88,-159 729.88,-162.5 729.88,-155.5"/>
</g>
<!-- QueryComponent -->
<g id="node5" class="node">
<title>QueryComponent</title>
<polygon fill="#ffffb3" stroke="black" points="734.31,-122 617.69,-122 617.69,-86 734.31,-86 734.31,-122"/>
<text text-anchor="middle" x="676" y="-99.8" font-family="Times,serif" font-size="14.00">QueryComponent</text>
</g>
<!-- QueryComponent&#45;&gt;AuthModule -->
<g id="edge5" class="edge">
<title>QueryComponent&#45;&gt;AuthModule</title>
<path fill="none" stroke="black" d="M676,-122.11C676,-122.11 676,-140.99 676,-140.99"/>
<polygon fill="black" stroke="black" points="672.5,-140.99 676,-150.99 679.5,-140.99 672.5,-140.99"/>
</g>
<!-- RegisterComponent -->
<g id="node6" class="node">
<title>RegisterComponent</title>
<polygon fill="#ffffb3" stroke="black" points="599.98,-122 472.02,-122 472.02,-86 599.98,-86 599.98,-122"/>
<text text-anchor="middle" x="536" y="-99.8" font-family="Times,serif" font-size="14.00">RegisterComponent</text>
</g>
<!-- RegisterComponent&#45;&gt;AuthModule -->
<g id="edge6" class="edge">
<title>RegisterComponent&#45;&gt;AuthModule</title>
<path fill="none" stroke="black" d="M536,-122.01C536,-138.05 536,-159 536,-159 536,-159 622.09,-159 622.09,-159"/>
<polygon fill="black" stroke="black" points="622.09,-162.5 632.09,-159 622.09,-155.5 622.09,-162.5"/>
</g>
<!-- UserInfoComponent -->
<g id="node7" class="node">
<title>UserInfoComponent</title>
<polygon fill="#ffffb3" stroke="black" points="453.58,-122 322.42,-122 322.42,-86 453.58,-86 453.58,-122"/>
<text text-anchor="middle" x="388" y="-99.8" font-family="Times,serif" font-size="14.00">UserInfoComponent</text>
</g>
<!-- UserInfoComponent&#45;&gt;AuthModule -->
<g id="edge7" class="edge">
<title>UserInfoComponent&#45;&gt;AuthModule</title>
<path fill="none" stroke="black" d="M388,-122.27C388,-140.56 388,-166 388,-166 388,-166 622.26,-166 622.26,-166"/>
<polygon fill="black" stroke="black" points="622.26,-169.5 632.26,-166 622.26,-162.5 622.26,-169.5"/>
</g>
<!-- AuthRoutingModule -->
<g id="node9" class="node">
<title>AuthRoutingModule</title>
<polygon fill="#8dd3c7" stroke="black" points="156.17,-122 153.17,-126 132.17,-126 129.17,-122 23.83,-122 23.83,-86 156.17,-86 156.17,-122"/>
<text text-anchor="middle" x="90" y="-99.8" font-family="Times,serif" font-size="14.00">AuthRoutingModule</text>
</g>
<!-- AuthRoutingModule&#45;&gt;AuthModule -->
<g id="edge8" class="edge">
<title>AuthRoutingModule&#45;&gt;AuthModule</title>
<path fill="none" stroke="black" d="M90,-122.01C90,-144.49 90,-180 90,-180 90,-180 622.43,-180 622.43,-180"/>
<polygon fill="black" stroke="black" points="622.43,-183.5 632.43,-180 622.43,-176.5 622.43,-183.5"/>
</g>
<!-- AuthService -->
<g id="node10" class="node">
<title>AuthService</title>
<ellipse fill="#fdb462" stroke="black" cx="239" cy="-104" rx="59.11" ry="18"/>
<text text-anchor="middle" x="239" y="-99.8" font-family="Times,serif" font-size="14.00">AuthService</text>
</g>
<!-- AuthService&#45;&gt;AuthModule -->
<g id="edge9" class="edge">
<title>AuthService&#45;&gt;AuthModule</title>
<path fill="none" stroke="black" d="M239,-122.13C239,-142.57 239,-173 239,-173 239,-173 622.1,-173 622.1,-173"/>
<polygon fill="black" stroke="black" points="622.1,-176.5 632.1,-173 622.1,-169.5 622.1,-176.5"/>
</g>
</g>
</svg>
