<?xml version="1.0" encoding="UTF-8" standalone="no"?>
<!DOCTYPE svg PUBLIC "-//W3C//DTD SVG 1.1//EN"
 "http://www.w3.org/Graphics/SVG/1.1/DTD/svg11.dtd">
<!-- Generated by graphviz version 2.47.0 (20210316.0004)
 -->
<!-- Title: dependencies Pages: 1 -->
<svg width="1656pt" height="360pt"
 viewBox="0.00 0.00 1656.00 360.00" xmlns="http://www.w3.org/2000/svg" xmlns:xlink="http://www.w3.org/1999/xlink">
<g id="graph0" class="graph" transform="scale(1 1) rotate(0) translate(4 356)">
<title>dependencies</title>
<polygon fill="white" stroke="transparent" points="-4,4 -4,-356 1652,-356 1652,4 -4,4"/>
<text text-anchor="start" x="803.01" y="-42.4" font-family="Times-12" font-weight="bold" font-size="14.00">Legend</text>
<polygon fill="#ffffb3" stroke="transparent" points="590,-10 590,-30 610,-30 610,-10 590,-10"/>
<text text-anchor="start" x="613.63" y="-15.4" font-family="Times-12" font-size="14.00"> &#160;Declarations</text>
<polygon fill="#8dd3c7" stroke="transparent" points="703,-10 703,-30 723,-30 723,-10 703,-10"/>
<text text-anchor="start" x="726.73" y="-15.4" font-family="Times-12" font-size="14.00"> &#160;Module</text>
<polygon fill="#80b1d3" stroke="transparent" points="789,-10 789,-30 809,-30 809,-10 789,-10"/>
<text text-anchor="start" x="812.78" y="-15.4" font-family="Times-12" font-size="14.00"> &#160;Bootstrap</text>
<polygon fill="#fdb462" stroke="transparent" points="886,-10 886,-30 906,-30 906,-10 886,-10"/>
<text text-anchor="start" x="909.67" y="-15.4" font-family="Times-12" font-size="14.00"> &#160;Providers</text>
<polygon fill="#fb8072" stroke="transparent" points="982,-10 982,-30 1002,-30 1002,-10 982,-10"/>
<text text-anchor="start" x="1005.73" y="-15.4" font-family="Times-12" font-size="14.00"> &#160;Exports</text>
<g id="clust1" class="cluster">
<title>cluster_AdminModule</title>
<polygon fill="none" stroke="black" stroke-dasharray="1,5" points="8,-70 8,-206 334,-206 334,-70 8,-70"/>
</g>
<g id="clust2" class="cluster">
<title>cluster_AdminModule_declarations</title>
<polygon fill="none" stroke="black" points="184,-78 184,-130 326,-130 326,-78 184,-78"/>
</g>
<g id="clust4" class="cluster">
<title>cluster_AdminModule_imports</title>
<polygon fill="none" stroke="black" points="16,-78 16,-130 176,-130 176,-78 16,-78"/>
</g>
<g id="clust14" class="cluster">
<title>cluster_AppModule</title>
<polygon fill="none" stroke="black" stroke-dasharray="1,5" points="880,-146 880,-344 1276,-344 1276,-146 880,-146"/>
</g>
<g id="clust15" class="cluster">
<title>cluster_AppModule_declarations</title>
<polygon fill="none" stroke="black" points="1146,-154 1146,-206 1268,-206 1268,-154 1146,-154"/>
</g>
<g id="clust17" class="cluster">
<title>cluster_AppModule_imports</title>
<polygon fill="none" stroke="black" points="888,-154 888,-206 1138,-206 1138,-154 888,-154"/>
</g>
<g id="clust19" class="cluster">
<title>cluster_AppModule_bootstrap</title>
<polygon fill="none" stroke="black" points="946,-284 946,-336 1070,-336 1070,-284 946,-284"/>
</g>
<g id="clust27" class="cluster">
<title>cluster_AuthModule</title>
<polygon fill="none" stroke="black" stroke-dasharray="1,5" points="342,-70 342,-138 1640,-138 1640,-70 342,-70"/>
</g>
<g id="clust28" class="cluster">
<title>cluster_AuthModule_declarations</title>
<polygon fill="none" stroke="black" points="648,-78 648,-130 1632,-130 1632,-78 648,-78"/>
</g>
<g id="clust36" class="cluster">
<title>cluster_AuthModule_imports</title>
<polygon fill="none" stroke="black" points="492,-78 492,-130 640,-130 640,-78 492,-78"/>
</g>
<g id="clust39" class="cluster">
<title>cluster_AuthModule_providers</title>
<polygon fill="none" stroke="black" points="350,-78 350,-130 484,-130 484,-78 350,-78"/>
</g>
<!-- ManageComponent -->
<g id="node1" class="node">
<title>ManageComponent</title>
<polygon fill="#ffffb3" stroke="black" points="318.42,-122 191.58,-122 191.58,-86 318.42,-86 318.42,-122"/>
<text text-anchor="middle" x="255" y="-99.8" font-family="Times,serif" font-size="14.00">ManageComponent</text>
</g>
<!-- AdminModule -->
<g id="node2" class="node">
<title>AdminModule</title>
<polygon fill="#8dd3c7" stroke="black" points="304.44,-198 301.44,-202 280.44,-202 277.44,-198 205.56,-198 205.56,-162 304.44,-162 304.44,-198"/>
<text text-anchor="middle" x="255" y="-175.8" font-family="Times,serif" font-size="14.00">AdminModule</text>
</g>
<!-- ManageComponent&#45;&gt;AdminModule -->
<g id="edge1" class="edge">
<title>ManageComponent&#45;&gt;AdminModule</title>
<path fill="none" stroke="black" d="M255,-122.01C255,-122.01 255,-151.85 255,-151.85"/>
<polygon fill="black" stroke="black" points="251.5,-151.85 255,-161.85 258.5,-151.85 251.5,-151.85"/>
</g>
<!-- AppModule -->
<g id="node5" class="node">
<title>AppModule</title>
<polygon fill="#8dd3c7" stroke="black" points="1049.66,-263 1046.66,-267 1025.66,-267 1022.66,-263 966.34,-263 966.34,-227 1049.66,-227 1049.66,-263"/>
<text text-anchor="middle" x="1008" y="-240.8" font-family="Times,serif" font-size="14.00">AppModule</text>
</g>
<!-- AdminModule&#45;&gt;AppModule -->
<g id="edge4" class="edge">
<title>AdminModule&#45;&gt;AppModule</title>
<path fill="none" stroke="black" d="M255,-198.11C255,-217.34 255,-245 255,-245 255,-245 956.17,-245 956.17,-245"/>
<polygon fill="black" stroke="black" points="956.17,-248.5 966.17,-245 956.17,-241.5 956.17,-248.5"/>
</g>
<!-- AdminRoutingModule -->
<g id="node3" class="node">
<title>AdminRoutingModule</title>
<polygon fill="#8dd3c7" stroke="black" points="167.56,-122 164.56,-126 143.56,-126 140.56,-122 24.44,-122 24.44,-86 167.56,-86 167.56,-122"/>
<text text-anchor="middle" x="96" y="-99.8" font-family="Times,serif" font-size="14.00">AdminRoutingModule</text>
</g>
<!-- AdminRoutingModule&#45;&gt;AdminModule -->
<g id="edge2" class="edge">
<title>AdminRoutingModule&#45;&gt;AdminModule</title>
<path fill="none" stroke="black" d="M96,-122.01C96,-144.49 96,-180 96,-180 96,-180 195.56,-180 195.56,-180"/>
<polygon fill="black" stroke="black" points="195.56,-183.5 205.56,-180 195.56,-176.5 195.56,-183.5"/>
</g>
<!-- AppComponent -->
<g id="node4" class="node">
<title>AppComponent</title>
<polygon fill="#ffffb3" stroke="black" points="1259.94,-198 1154.06,-198 1154.06,-162 1259.94,-162 1259.94,-198"/>
<text text-anchor="middle" x="1207" y="-175.8" font-family="Times,serif" font-size="14.00">AppComponent</text>
</g>
<!-- AppComponent&#45;&gt;AppModule -->
<g id="edge3" class="edge">
<title>AppComponent&#45;&gt;AppModule</title>
<path fill="none" stroke="black" d="M1207,-198.11C1207,-217.34 1207,-245 1207,-245 1207,-245 1059.72,-245 1059.72,-245"/>
<polygon fill="black" stroke="black" points="1059.72,-241.5 1049.72,-245 1059.72,-248.5 1059.72,-241.5"/>
</g>
<!-- AppComponent  -->
<g id="node8" class="node">
<title>AppComponent </title>
<polygon fill="#80b1d3" stroke="black" points="1062.44,-328 953.56,-328 953.56,-292 1062.44,-292 1062.44,-328"/>
<text text-anchor="middle" x="1008" y="-305.8" font-family="Times,serif" font-size="14.00">AppComponent </text>
</g>
<!-- AppModule&#45;&gt;AppComponent  -->
<g id="edge7" class="edge">
<title>AppModule&#45;&gt;AppComponent </title>
<path fill="none" stroke="black" stroke-dasharray="1,5" d="M1008,-263.11C1008,-263.11 1008,-281.99 1008,-281.99"/>
<polygon fill="black" stroke="black" points="1004.5,-281.99 1008,-291.99 1011.5,-281.99 1004.5,-281.99"/>
</g>
<!-- AppRoutingModule -->
<g id="node6" class="node">
<title>AppRoutingModule</title>
<polygon fill="#8dd3c7" stroke="black" points="1130.27,-198 1127.27,-202 1106.27,-202 1103.27,-198 1001.73,-198 1001.73,-162 1130.27,-162 1130.27,-198"/>
<text text-anchor="middle" x="1066" y="-175.8" font-family="Times,serif" font-size="14.00">AppRoutingModule</text>
</g>
<!-- AppRoutingModule&#45;&gt;AppModule -->
<g id="edge5" class="edge">
<title>AppRoutingModule&#45;&gt;AppModule</title>
<path fill="none" stroke="black" d="M1025.72,-198.11C1025.72,-198.11 1025.72,-216.99 1025.72,-216.99"/>
<polygon fill="black" stroke="black" points="1022.22,-216.99 1025.72,-226.99 1029.22,-216.99 1022.22,-216.99"/>
</g>
<!-- AuthModule -->
<g id="node7" class="node">
<title>AuthModule</title>
<polygon fill="#8dd3c7" stroke="black" points="983.55,-198 980.55,-202 959.55,-202 956.55,-198 896.45,-198 896.45,-162 983.55,-162 983.55,-198"/>
<text text-anchor="middle" x="940" y="-175.8" font-family="Times,serif" font-size="14.00">AuthModule</text>
</g>
<!-- AuthModule&#45;&gt;AppModule -->
<g id="edge6" class="edge">
<title>AuthModule&#45;&gt;AppModule</title>
<path fill="none" stroke="black" d="M974.97,-198.11C974.97,-198.11 974.97,-216.99 974.97,-216.99"/>
<polygon fill="black" stroke="black" points="971.47,-216.99 974.97,-226.99 978.47,-216.99 971.47,-216.99"/>
</g>
<!-- DetailsComponent -->
<g id="node9" class="node">
<title>DetailsComponent</title>
<polygon fill="#ffffb3" stroke="black" points="1624.48,-122 1503.52,-122 1503.52,-86 1624.48,-86 1624.48,-122"/>
<text text-anchor="middle" x="1564" y="-99.8" font-family="Times,serif" font-size="14.00">DetailsComponent</text>
</g>
<!-- DetailsComponent&#45;&gt;AuthModule -->
<g id="edge8" class="edge">
<title>DetailsComponent&#45;&gt;AuthModule</title>
<path fill="none" stroke="black" d="M1564,-122.05C1564,-136.37 1564,-154 1564,-154 1564,-154 978.45,-154 978.45,-154 978.45,-154 978.45,-154.79 978.45,-154.79"/>
<polygon fill="black" stroke="black" points="974.95,-151.94 978.45,-161.94 981.95,-151.94 974.95,-151.94"/>
</g>
<!-- FavoritesComponent -->
<g id="node10" class="node">
<title>FavoritesComponent</title>
<polygon fill="#ffffb3" stroke="black" points="1485.93,-122 1352.07,-122 1352.07,-86 1485.93,-86 1485.93,-122"/>
<text text-anchor="middle" x="1419" y="-99.8" font-family="Times,serif" font-size="14.00">FavoritesComponent</text>
</g>
<!-- FavoritesComponent&#45;&gt;AuthModule -->
<g id="edge9" class="edge">
<title>FavoritesComponent&#45;&gt;AuthModule</title>
<path fill="none" stroke="black" d="M1419,-122.06C1419,-133.44 1419,-146 1419,-146 1419,-146 973.13,-146 973.13,-146 973.13,-146 973.13,-151.81 973.13,-151.81"/>
<polygon fill="black" stroke="black" points="969.63,-151.81 973.13,-161.81 976.63,-151.81 969.63,-151.81"/>
</g>
<!-- HomeComponent -->
<g id="node11" class="node">
<title>HomeComponent</title>
<polygon fill="#ffffb3" stroke="black" points="1334.55,-122 1219.45,-122 1219.45,-86 1334.55,-86 1334.55,-122"/>
<text text-anchor="middle" x="1277" y="-99.8" font-family="Times,serif" font-size="14.00">HomeComponent</text>
</g>
<!-- HomeComponent&#45;&gt;AuthModule -->
<g id="edge10" class="edge">
<title>HomeComponent&#45;&gt;AuthModule</title>
<path fill="none" stroke="black" d="M1239.47,-122.19C1239.47,-130.28 1239.47,-138 1239.47,-138 1239.47,-138 967.81,-138 967.81,-138 967.81,-138 967.81,-151.94 967.81,-151.94"/>
<polygon fill="black" stroke="black" points="964.31,-151.94 967.81,-161.94 971.31,-151.94 964.31,-151.94"/>
</g>
<!-- LoginComponent -->
<g id="node12" class="node">
<title>LoginComponent</title>
<polygon fill="#ffffb3" stroke="black" points="1201.28,-122 1086.72,-122 1086.72,-86 1201.28,-86 1201.28,-122"/>
<text text-anchor="middle" x="1144" y="-99.8" font-family="Times,serif" font-size="14.00">LoginComponent</text>
</g>
<!-- LoginComponent&#45;&gt;AuthModule -->
<g id="edge11" class="edge">
<title>LoginComponent&#45;&gt;AuthModule</title>
<path fill="none" stroke="black" d="M1108.5,-122.06C1108.5,-126.49 1108.5,-130 1108.5,-130 1108.5,-130 962.49,-130 962.49,-130 962.49,-130 962.49,-151.95 962.49,-151.95"/>
<polygon fill="black" stroke="black" points="958.99,-151.95 962.49,-161.95 965.99,-151.95 958.99,-151.95"/>
</g>
<!-- QueryComponent -->
<g id="node13" class="node">
<title>QueryComponent</title>
<polygon fill="#ffffb3" stroke="black" points="1068.31,-122 951.69,-122 951.69,-86 1068.31,-86 1068.31,-122"/>
<text text-anchor="middle" x="1010" y="-99.8" font-family="Times,serif" font-size="14.00">QueryComponent</text>
</g>
<!-- QueryComponent&#45;&gt;AuthModule -->
<g id="edge12" class="edge">
<title>QueryComponent&#45;&gt;AuthModule</title>
<path fill="none" stroke="black" d="M957.16,-122.01C957.16,-122.01 957.16,-151.85 957.16,-151.85"/>
<polygon fill="black" stroke="black" points="953.66,-151.85 957.16,-161.85 960.66,-151.85 953.66,-151.85"/>
</g>
<!-- RegisterComponent -->
<g id="node14" class="node">
<title>RegisterComponent</title>
<polygon fill="#ffffb3" stroke="black" points="933.98,-122 806.02,-122 806.02,-86 933.98,-86 933.98,-122"/>
<text text-anchor="middle" x="870" y="-99.8" font-family="Times,serif" font-size="14.00">RegisterComponent</text>
</g>
<!-- RegisterComponent&#45;&gt;AuthModule -->
<g id="edge13" class="edge">
<title>RegisterComponent&#45;&gt;AuthModule</title>
<path fill="none" stroke="black" d="M915.11,-122.01C915.11,-122.01 915.11,-151.85 915.11,-151.85"/>
<polygon fill="black" stroke="black" points="911.61,-151.85 915.11,-161.85 918.61,-151.85 911.61,-151.85"/>
</g>
<!-- UserInfoComponent -->
<g id="node15" class="node">
<title>UserInfoComponent</title>
<polygon fill="#ffffb3" stroke="black" points="787.58,-122 656.42,-122 656.42,-86 787.58,-86 787.58,-122"/>
<text text-anchor="middle" x="722" y="-99.8" font-family="Times,serif" font-size="14.00">UserInfoComponent</text>
</g>
<!-- UserInfoComponent&#45;&gt;AuthModule -->
<g id="edge14" class="edge">
<title>UserInfoComponent&#45;&gt;AuthModule</title>
<path fill="none" stroke="black" d="M722,-122.31C722,-142.15 722,-171 722,-171 722,-171 886.41,-171 886.41,-171"/>
<polygon fill="black" stroke="black" points="886.41,-174.5 896.41,-171 886.41,-167.5 886.41,-174.5"/>
</g>
<!-- AuthRoutingModule -->
<g id="node16" class="node">
<title>AuthRoutingModule</title>
<polygon fill="#8dd3c7" stroke="black" points="632.17,-122 629.17,-126 608.17,-126 605.17,-122 499.83,-122 499.83,-86 632.17,-86 632.17,-122"/>
<text text-anchor="middle" x="566" y="-99.8" font-family="Times,serif" font-size="14.00">AuthRoutingModule</text>
</g>
<!-- AuthRoutingModule&#45;&gt;AuthModule -->
<g id="edge15" class="edge">
<title>AuthRoutingModule&#45;&gt;AuthModule</title>
<path fill="none" stroke="black" d="M566,-122.01C566,-144.49 566,-180 566,-180 566,-180 886.37,-180 886.37,-180"/>
<polygon fill="black" stroke="black" points="886.37,-183.5 896.37,-180 886.37,-176.5 886.37,-183.5"/>
</g>
<!-- AuthService -->
<g id="node17" class="node">
<title>AuthService</title>
<ellipse fill="#fdb462" stroke="black" cx="417" cy="-104" rx="59.11" ry="18"/>
<text text-anchor="middle" x="417" y="-99.8" font-family="Times,serif" font-size="14.00">AuthService</text>
</g>
<!-- AuthService&#45;&gt;AuthModule -->
<g id="edge16" class="edge">
<title>AuthService&#45;&gt;AuthModule</title>
<path fill="none" stroke="black" d="M417,-122.03C417,-146.98 417,-189 417,-189 417,-189 886.31,-189 886.31,-189"/>
<polygon fill="black" stroke="black" points="886.31,-192.5 896.31,-189 886.31,-185.5 886.31,-192.5"/>
</g>
</g>
</svg>
